<svg width="320" height="240" viewBox="0 0 320 240" fill="none" xmlns="http://www.w3.org/2000/svg">
  <defs>
    <linearGradient id="warm" x1="0" y1="0" x2="1" y2="1">
      <stop offset="0%" stop-color="#FFDEB6"/>
      <stop offset="100%" stop-color="#FF8B5C"/>
    </linearGradient>
    <filter id="shadowWarm" x="72" y="28" width="176" height="204" filterUnits="userSpaceOnUse">
      <feOffset dy="6"/>
      <feGaussianBlur stdDeviation="10" result="blur"/>
      <feColorMatrix type="matrix" values="0 0 0 0 0.35  0 0 0 0 0.16  0 0 0 0 0  0 0 0 0.28 0"/>
      <feBlend in="SourceGraphic" in2="blur" mode="normal"/>
    </filter>
  </defs>
  <rect width="320" height="240" rx="24" fill="url(#warm)" opacity="0.2"/>
  <g filter="url(#shadowWarm)">
    <path d="M160 44C138 90 108 128 108 150C108 178 130 198 160 198C190 198 212 178 212 150C212 128 182 90 160 44Z" fill="url(#warm)"/>
  </g>
  <path d="M160 96C148 120 136 140 136 154C136 168 145 178 160 178C175 178 184 168 184 154C184 140 172 120 160 96Z" fill="#FFF4EA" opacity="0.45"/>
</svg>
