<svg width="320" height="240" viewBox="0 0 320 240" fill="none" xmlns="http://www.w3.org/2000/svg">
  <defs>
    <linearGradient id="hot" x1="0" y1="0" x2="1" y2="1">
      <stop offset="0%" stop-color="#FF9B6A"/>
      <stop offset="100%" stop-color="#FF2D55"/>
    </linearGradient>
    <filter id="shadowHot" x="72" y="28" width="176" height="204" filterUnits="userSpaceOnUse">
      <feOffset dy="8"/>
      <feGaussianBlur stdDeviation="14" result="blur"/>
      <feColorMatrix type="matrix" values="0 0 0 0 0.6  0 0 0 0 0.07  0 0 0 0 0.08  0 0 0 0.3 0"/>
      <feBlend in="SourceGraphic" in2="blur" mode="normal"/>
    </filter>
  </defs>
  <rect width="320" height="240" rx="24" fill="url(#hot)" opacity="0.18"/>
  <g filter="url(#shadowHot)">
    <path d="M160 42C134 92 104 134 104 156C104 188 129 204 160 204C191 204 216 188 216 156C216 134 186 92 160 42Z" fill="url(#hot)"/>
  </g>
  <path d="M160 90C146 120 132 144 132 160C132 176 142 186 160 186C178 186 188 176 188 160C188 144 174 120 160 90Z" fill="#FFE7DF" opacity="0.4"/>
  <path d="M160 48C170 68 188 100 188 126C188 146 178 156 166 160" stroke="#FFE7DF" stroke-width="4" stroke-linecap="round" stroke-opacity="0.5"/>
</svg>
