<svg width="320" height="240" viewBox="0 0 320 240" fill="none" xmlns="http://www.w3.org/2000/svg">
  <defs>
    <linearGradient id="cold" x1="0" y1="0" x2="1" y2="1">
      <stop offset="0%" stop-color="#96E6FF"/>
      <stop offset="100%" stop-color="#2D6CFF"/>
    </linearGradient>
  </defs>
  <rect width="320" height="240" rx="24" fill="url(#cold)" opacity="0.18"/>
  <g filter="url(#dropShadow)">
    <path d="M160 48C140 86 112 118 112 146C112 172 132 192 160 192C188 192 208 172 208 146C208 118 180 86 160 48Z" fill="url(#cold)"/>
  </g>
  <path d="M160 98C148 122 140 133 140 146C140 161 150 170 160 170C170 170 180 161 180 146C180 133 172 122 160 98Z" fill="#F3FBFF" opacity="0.4"/>
  <defs>
    <filter id="dropShadow" x="72" y="28" width="176" height="204" filterUnits="userSpaceOnUse">
      <feOffset dy="6"/>
      <feGaussianBlur stdDeviation="12" result="blur"/>
      <feColorMatrix type="matrix" values="0 0 0 0 0  0 0 0 0 0.35  0 0 0 0 0.62  0 0 0 0.28 0"/>
      <feBlend in="SourceGraphic" in2="blur" mode="normal"/>
    </filter>
  </defs>
</svg>
